<svg width="80" height="80" viewBox="0 0 80 80" fill="none" xmlns="http://www.w3.org/2000/svg">
<rect x="1" y="1" width="78" height="78" rx="11.8" fill="white"/>
<rect x="1" y="1" width="78" height="78" rx="11.8" fill="#FE4830" fill-opacity="0.4"/>
<rect x="1" y="1" width="78" height="78" rx="11.8" stroke="white" stroke-width="2"/>
<path d="M23.9688 43.9836C23.6008 43.9848 23.24 43.8817 22.9284 43.686C22.6167 43.4904 22.3669 43.2103 22.2081 42.8784C22.0492 42.5465 21.9878 42.1763 22.031 41.8108C22.0742 41.4454 22.2202 41.0997 22.452 40.8139L41.7034 20.9792C41.8478 20.8125 42.0446 20.6998 42.2615 20.6597C42.4783 20.6196 42.7024 20.6544 42.8968 20.7585C43.0913 20.8625 43.2446 21.0295 43.3317 21.2322C43.4187 21.4348 43.4342 21.661 43.3757 21.8737L39.6421 33.5801C39.532 33.8747 39.4951 34.1917 39.5344 34.5038C39.5737 34.8158 39.6881 35.1137 39.8679 35.3719C40.0476 35.63 40.2873 35.8407 40.5663 35.9858C40.8454 36.131 41.1555 36.2063 41.47 36.2053H55.0821C55.4501 36.204 55.8109 36.3072 56.1226 36.5028C56.4342 36.6985 56.684 36.9785 56.8428 37.3104C57.0017 37.6424 57.0631 38.0126 57.0199 38.378C56.9767 38.7435 56.8307 39.0892 56.5989 39.3749L37.3475 59.2097C37.2031 59.3764 37.0063 59.489 36.7895 59.5291C36.5726 59.5692 36.3485 59.5344 36.1541 59.4304C35.9596 59.3264 35.8063 59.1593 35.7193 58.9567C35.6322 58.754 35.6167 58.5278 35.6752 58.3152L39.4088 46.6088C39.5189 46.3141 39.5558 45.9972 39.5165 45.6851C39.4772 45.373 39.3628 45.0751 39.183 44.817C39.0033 44.5588 38.7636 44.3482 38.4846 44.203C38.2055 44.0579 37.8954 43.9826 37.5809 43.9836H23.9688Z" stroke="#FD482F" stroke-width="2" stroke-linecap="round" stroke-linejoin="round"/>
</svg>
